<?xml version="1.0" encoding="UTF-8" standalone="no"?>
<!-- Created with Inkscape (http://www.inkscape.org/) -->

<svg
   width="100.01574mm"
   height="119.71941mm"
   viewBox="0 0 100.01574 119.71941"
   version="1.1"
   id="svg191"
   xml:space="preserve"
   inkscape:export-filename="bitmap.svg"
   inkscape:export-xdpi="96"
   inkscape:export-ydpi="96"
   xmlns:inkscape="http://www.inkscape.org/namespaces/inkscape"
   xmlns:sodipodi="http://sodipodi.sourceforge.net/DTD/sodipodi-0.dtd"
   xmlns="http://www.w3.org/2000/svg"
   xmlns:svg="http://www.w3.org/2000/svg"><sodipodi:namedview
     id="namedview193"
     pagecolor="#ffffff"
     bordercolor="#000000"
     borderopacity="0.25"
     inkscape:showpageshadow="2"
     inkscape:pageopacity="0.0"
     inkscape:pagecheckerboard="0"
     inkscape:deskcolor="#d1d1d1"
     inkscape:document-units="mm"
     showgrid="false" /><defs
     id="defs188" /><g
     inkscape:label="Layer 1"
     inkscape:groupmode="layer"
     id="layer1"
     transform="translate(-49.928242,-64.796125)"><path
       style="fill:#239dad;fill-opacity:1;stroke-width:0.264583"
       d="m 105.09724,184.07533 c -8.384153,-1.49693 -13.819793,-5.7412 -16.098653,-12.57019 -1.1788,-3.53246 -1.32477,-5.41084 -1.42873,-18.38525 l -0.0999,-12.46313 -3.88637,-1.26132 c -4.20765,-1.36559 -10.639204,-4.20314 -13.085782,-5.77334 -0.839571,-0.53884 -1.658953,-0.9797 -1.820852,-0.9797 -0.161901,0 -0.683331,0.2404 -1.15874,0.53422 -1.896144,1.17188 -6.466494,2.3762 -9.017596,2.3762 -1.228734,0 -1.54976,-0.10706 -2.099369,-0.70009 -0.860555,-0.92856 -0.846725,-2.01625 0.03445,-2.70938 0.812452,-0.63908 1.098283,-0.72737 3.087036,-0.95352 1.741168,-0.198 1.980765,-0.56312 0.529167,-0.8064 -1.67607,-0.28089 -3.423854,-0.91499 -3.83127,-1.38998 -0.809965,-0.9443 -0.772366,-1.39147 0.198648,-2.36249 0.889903,-0.8899 0.996557,-0.92583 2.253517,-0.75909 0.725672,0.0963 1.496548,0.24301 1.713056,0.32609 0.711358,0.27297 0.413072,-0.32999 -0.796972,-1.61101 -1.36839,-1.44867 -1.502223,-2.24034 -0.541193,-3.20136 0.878184,-0.87819 2.009189,-0.84693 3.111673,0.086 0.478007,0.4045 1.54351,1.24454 2.367785,1.86677 0.824275,0.62223 1.564677,1.30331 1.645341,1.51352 0.383227,0.99867 0.625356,0.1096 0.77371,-2.84098 0.1372,-2.72874 0.242607,-3.30372 0.687152,-3.74827 0.705115,-0.70511 2.017318,-0.67897 2.752003,0.0548 0.546915,0.54626 0.58829,0.87448 0.712904,5.65524 l 0.132291,5.07533 1.984375,1.17857 c 1.091406,0.64821 3.234531,1.73933 4.762496,2.42471 3.0185,1.35397 8.9353,3.49496 9.31177,3.36947 0.20826,-0.0694 0.32738,-24.78367 0.12045,-24.99059 -0.0455,-0.0455 -1.91848,-0.0892 -4.16217,-0.0971 -2.24368,-0.008 -4.34006,-0.0787 -4.65863,-0.15736 -0.48877,-0.12066 -0.66294,-0.52126 -1.11548,-2.56575 -0.29495,-1.33252 -0.610284,-2.85421 -0.70074,-3.38153 l -0.164468,-0.95878 2.284218,-0.82653 c 1.25633,-0.45459 3.32059,-1.11801 4.58724,-1.47426 1.26666,-0.35625 2.73211,-0.82711 3.25654,-1.04636 l 0.95353,-0.39863 -0.13015,-4.508176 -0.13015,-4.508192 3.40996,-1.621282 c 1.87548,-0.891707 6.14839,-2.843641 9.495373,-4.337632 3.34698,-1.493991 7.00866,-3.146714 8.13706,-3.672718 1.1284,-0.526004 2.11067,-0.956371 2.18281,-0.956371 0.0722,0 0.13117,4.707935 0.13117,10.462074 v 10.462067 l 1.91823,-0.14987 c 1.05503,-0.0824 4.77573,-0.37842 8.26823,-0.65777 3.4925,-0.27934 7.62992,-0.58827 9.19427,-0.686506 l 2.84427,-0.17862 -5.3e-4,0.759206 c -2.2e-4,0.41756 -0.22842,2.00936 -0.5071,3.53733 -0.27869,1.52797 -0.64894,3.79016 -0.82279,5.0271 -0.17385,1.23692 -0.36292,2.40895 -0.42016,2.6045 -0.0857,0.29278 -1.6571,0.32636 -8.90023,0.1902 -4.8379,-0.0909 -9.42126,-0.22974 -10.18524,-0.30844 l -1.38906,-0.14309 v 12.18987 c 0,6.70443 0.0893,12.1873 0.19843,12.18415 0.783,-0.0226 5.46876,-1.22358 7.87136,-2.01748 5.61491,-1.85534 14.47105,-5.66473 15.17967,-6.5294 0.19965,-0.24362 0.52516,-1.21652 0.72335,-2.162 0.62346,-2.9743 3.08364,-6.92739 4.61336,-7.4129 0.75004,-0.23805 2.07136,0.57096 2.28234,1.39742 0.302,1.18306 0.16016,1.68121 -0.74446,2.61454 -1.00365,1.0355 -0.70915,1.11844 1.03352,0.29106 1.80678,-0.85781 4.2623,-0.83603 5.20133,0.0461 0.49771,0.46758 0.68277,0.9094 0.68277,1.63005 0,0.90365 -0.0981,1.03611 -1.14187,1.54138 -0.62804,0.30402 -1.23479,0.55277 -1.34835,0.55277 -0.59288,0 -3.05527,0.8617 -2.94984,1.03229 0.0677,0.10945 0.75379,0.10925 1.52475,-5.3e-4 2.92985,-0.4169 4.33433,-0.29662 5.21793,0.44688 0.50553,0.42538 0.81405,0.93335 0.81405,1.34031 0,1.70065 -1.24018,2.35349 -4.04653,2.13012 l -1.90649,-0.15168 1.45521,0.66587 c 2.56531,1.17383 2.96594,2.00336 1.69628,3.51227 -0.51476,0.61175 -0.90603,0.81405 -1.57448,0.81405 -2.47707,0 -6.46643,-1.53438 -8.57957,-3.29986 -0.82584,-0.68997 -1.22461,-0.86802 -1.5523,-0.69309 -0.4614,0.2463 -3.01691,1.43342 -5.75279,2.67236 -3.51431,1.59144 -10.267,3.86797 -14.53193,4.89913 l -4.49792,1.08749 0.0956,10.69771 c 0.0526,5.88375 0.19903,11.34647 0.32542,12.13939 0.54405,3.41298 2.28201,5.39195 5.62972,6.41044 4.21662,1.28284 10.82821,-0.3935 16.76698,-4.2512 l 1.65107,-1.0725 0.48716,0.98475 c 0.65838,1.33081 2.1117,3.74543 2.71908,4.51759 0.2888,0.36715 0.4122,0.7776 0.29613,0.98499 -0.37585,0.67162 -4.95579,4.1805 -8.48301,6.49919 -9.66719,6.35493 -16.98618,8.38486 -25.04441,6.94612 z M 63.160786,100.11007 C 59.776418,99.471174 57.155711,98.064594 54.53595,95.480954 49.70549,90.717108 48.56577,83.736328 51.626246,77.659035 c 0.498618,-0.990122 1.095213,-1.956776 1.325767,-2.148119 0.623002,-0.517045 0.533769,-0.76719 -0.771435,-2.162559 -1.241322,-1.327074 -1.460549,-2.138641 -0.944414,-3.496179 0.339777,-0.893681 1.689489,-1.794196 2.940722,-1.962021 0.987573,-0.132462 1.128685,-0.05769 2.547402,1.349755 0.826053,0.819491 1.604908,1.489984 1.730788,1.489984 0.125881,0 0.670616,-0.224389 1.210521,-0.498642 3.275415,-1.663796 8.330547,-2.581995 11.824677,-2.147798 2.841074,0.353045 4.61437,1.014034 6.487183,2.41807 3.94034,2.954062 6.08541,7.749334 6.08541,13.603867 0,7.655094 -4.09115,13.027171 -11.773956,15.460361 -2.055445,0.650976 -7.000984,0.945876 -9.128125,0.544316 z m 6.932289,-6.658917 c 3.787685,-0.803664 6.435257,-3.440991 7.348192,-7.319764 0.39447,-1.675966 0.021,-4.847538 -0.842649,-7.155838 -1.475861,-3.944588 -5.62855,-5.434413 -11.185918,-4.013077 -5.081831,1.299713 -8.170895,4.377425 -8.952197,8.919298 -0.236387,1.374172 -0.207913,1.879267 0.174294,3.091767 0.923347,2.929194 3.399215,5.443173 6.261406,6.357784 1.446895,0.462361 5.28162,0.526201 7.196872,0.11983 z m -2.816994,-3.47282 c -0.05579,-0.181901 -0.162518,-0.770379 -0.237181,-1.30773 -0.203954,-1.467866 -1.097425,-3.288064 -1.858909,-3.787007 -0.37187,-0.24366 -1.159817,-0.507892 -1.750992,-0.587187 -0.591174,-0.07929 -1.135538,-0.242343 -1.209698,-0.362334 -0.179443,-0.290347 1.553135,-2.193388 3.148057,-3.457776 1.111456,-0.88112 1.460794,-1.015022 2.645833,-1.014164 2.55547,0.0019 4.093633,1.613196 3.746926,3.925199 -0.238503,1.590461 -0.908198,2.9575 -2.515957,5.135791 -1.298319,1.759039 -1.768316,2.106559 -1.968079,1.455208 z m 62.427409,5.732041 c -0.29104,-0.0715 -1.3626,-0.321 -2.38125,-0.55447 -3.65739,-0.83826 -6.59784,-2.872212 -8.59963,-5.948482 -1.51381,-2.32637 -1.96136,-4.236696 -1.97342,-8.423359 -0.009,-3.092069 0.0767,-3.837535 0.63733,-5.549558 2.16669,-6.616712 8.42716,-10.384111 17.34406,-10.43724 4.05106,-0.02414 5.36103,0.323575 8.15681,2.165091 1.99429,1.313587 3.52233,3.070653 4.70102,5.405625 2.27827,4.513227 2.36351,11.219158 0.19708,15.503843 -1.63632,3.236216 -5.64727,6.1934 -9.98413,7.36108 -1.47145,0.39618 -7.08205,0.727 -8.09787,0.47747 z m 6.89227,-6.889022 c 4.6293,-1.162843 7.01239,-5.061698 6.20635,-10.153935 -0.68997,-4.359016 -2.32873,-6.397926 -5.87912,-7.314694 -1.41878,-0.36635 -2.00578,-0.384344 -3.99368,-0.122422 -3.84628,0.506781 -5.63507,1.221253 -7.32817,2.926996 -1.89244,1.90657 -2.50903,3.534915 -2.50931,6.626766 -2.7e-4,3.17283 0.40265,4.285305 2.20165,6.078611 1.16083,1.157155 1.82833,1.590915 2.9548,1.920107 1.95639,0.57172 6.1479,0.591087 8.34748,0.03857 z m -3.84956,-3.227657 c 0,-0.907103 -0.70566,-3.042588 -1.38701,-4.197381 -0.48761,-0.826441 -1.14787,-1.160479 -3.04476,-1.540403 -0.47294,-0.09473 -0.8599,-0.306337 -0.8599,-0.470249 0,-0.329482 2.85493,-3.142182 3.85341,-3.79641 1.78824,-1.171696 4.06113,-0.927848 5.38284,0.577499 1.43029,1.629013 1.06644,4.147072 -1.05824,7.323535 -1.96293,2.934653 -2.88634,3.607584 -2.88634,2.103409 z"
       id="path219" /></g></svg>
